<svg version="1.1" xmlns="http://www.w3.org/2000/svg" viewBox="0 0 2094.343659877777 3559.5" width="2094.343659877777" height="3559.5">
  <!-- svg-source:excalidraw -->
  
  <defs>
    <style class="style-fonts">
      @font-face {
        font-family: "Virgil";
        src: url("https://excalidraw.com/Virgil.woff2");
      }
      @font-face {
        font-family: "Cascadia";
        src: url("https://excalidraw.com/Cascadia.woff2");
      }
    </style>
  </defs>
  <rect x="0" y="0" width="2094.343659877777" height="3559.5" fill="#ffffff"></rect><g stroke-linecap="round" transform="translate(10 10) rotate(0 522.5 345)"><path d="M32 0 M32 0 C230.22 1.04, 427.84 2.25, 1013 0 M32 0 C323.91 0.05, 616.07 -0.22, 1013 0 M1013 0 C1036 0.82, 1044.98 12.4, 1045 32 M1013 0 C1033.86 -0.21, 1045.73 11.26, 1045 32 M1045 32 C1046.07 251.86, 1046.12 472.09, 1045 658 M1045 32 C1047.19 265.23, 1047.09 498.76, 1045 658 M1045 658 C1044.46 679.4, 1034.07 689.29, 1013 690 M1045 658 C1043.12 681.63, 1035.58 690.47, 1013 690 M1013 690 C687.49 690.53, 362.47 690.87, 32 690 M1013 690 C761.05 686.89, 509.33 686.93, 32 690 M32 690 C9.99 689.15, -1.31 680.51, 0 658 M32 690 C10.29 688.76, -0.76 681.22, 0 658 M0 658 C0.53 500.9, 0.21 345.01, 0 32 M0 658 C0.46 490.4, 0.98 323.41, 0 32 M0 32 C-0.78 11.49, 9.89 -0.89, 32 0 M0 32 C1.76 10.7, 11.03 0.14, 32 0" stroke="#495057" stroke-width="1" fill="none"></path></g><g stroke-linecap="round"><g transform="translate(516 12) rotate(0 -0.47152642514247134 346.27713292092085)"><path d="M0.35 -0.63 C0.13 114.98, -0.14 577.68, -0.21 693.18 M-0.92 1.66 C-1.42 117, -1.28 576.91, -1.26 691.68" stroke="#495057" stroke-width="1" fill="none"></path></g></g><mask></mask><g stroke-linecap="round" transform="translate(572 177) rotate(0 198 25)"><path d="M12.5 0 M12.5 0 C109.76 2.41, 207.42 1.6, 383.5 0 M12.5 0 C123.07 -0.49, 235.07 0.14, 383.5 0 M383.5 0 C391.81 1.73, 395.58 3.98, 396 12.5 M383.5 0 C392.56 0.6, 397.2 4.92, 396 12.5 M396 12.5 C396.84 18.8, 397.53 29.84, 396 37.5 M396 12.5 C395.48 20.32, 395.68 26.21, 396 37.5 M396 37.5 C395.73 45.12, 390.2 51.99, 383.5 50 M396 37.5 C397.25 46.3, 392.57 51.01, 383.5 50 M383.5 50 C263.37 48.32, 140.89 49.38, 12.5 50 M383.5 50 C301.91 50.06, 219.5 49.74, 12.5 50 M12.5 50 C2.86 51.18, -0.33 44.75, 0 37.5 M12.5 50 C3.4 51.89, -1.14 45.23, 0 37.5 M0 37.5 C-1.06 31.96, -0.62 21.81, 0 12.5 M0 37.5 C0.74 28.58, -0.21 20.09, 0 12.5 M0 12.5 C-0.78 3.28, 5.7 0.03, 12.5 0 M0 12.5 C0.36 4.31, 3.28 -0.48, 12.5 0" stroke="#495057" stroke-width="1" fill="none"></path></g><g stroke-linecap="round" transform="translate(574 252) rotate(0 198 25)"><path d="M12.5 0 M12.5 0 C135.92 0.37, 257.33 0.39, 383.5 0 M12.5 0 C98.23 2.2, 184.97 1.68, 383.5 0 M383.5 0 C393.56 -0.42, 395.82 4.8, 396 12.5 M383.5 0 C392.43 1.2, 396.75 4.41, 396 12.5 M396 12.5 C394.39 22.24, 397.67 28.56, 396 37.5 M396 12.5 C397.01 19.22, 396.06 26.35, 396 37.5 M396 37.5 C395.29 44.2, 393.83 51.08, 383.5 50 M396 37.5 C396.47 46.57, 392.85 50.6, 383.5 50 M383.5 50 C269.58 51.16, 156.96 50.71, 12.5 50 M383.5 50 C273.62 50.93, 163.36 50.74, 12.5 50 M12.5 50 C5.35 49.67, -1.08 45.17, 0 37.5 M12.5 50 C6.05 48.86, -0.6 45.87, 0 37.5 M0 37.5 C2.06 29.73, -0.54 24.39, 0 12.5 M0 37.5 C0.17 31.4, 0.6 25.68, 0 12.5 M0 12.5 C-0.89 5.7, 4.19 0.32, 12.5 0 M0 12.5 C0.14 3.28, 3.69 -0.92, 12.5 0" stroke="#495057" stroke-width="1" fill="none"></path></g><g stroke-linecap="round" transform="translate(575 343) rotate(0 198 25)"><path d="M12.5 0 M12.5 0 C104.33 -1.84, 196.21 -3.08, 383.5 0 M12.5 0 C126.09 1.67, 238.64 1.95, 383.5 0 M383.5 0 C391.42 -0.18, 396.64 4.69, 396 12.5 M383.5 0 C393.03 0.75, 396.24 4.9, 396 12.5 M396 12.5 C397.55 20.34, 395.57 24.13, 396 37.5 M396 12.5 C395.61 20.3, 395.75 27.69, 396 37.5 M396 37.5 C394.36 47.83, 392.92 50.41, 383.5 50 M396 37.5 C396.73 46.85, 392.44 50.15, 383.5 50 M383.5 50 C294.79 50.33, 206.17 49.48, 12.5 50 M383.5 50 C272.01 49.96, 160.54 50.58, 12.5 50 M12.5 50 C3.84 48.92, -0.66 47.47, 0 37.5 M12.5 50 C3.03 49.4, 0.04 45.48, 0 37.5 M0 37.5 C-0.52 30.03, 1.26 22.33, 0 12.5 M0 37.5 C-0.53 32.32, -0.53 25.88, 0 12.5 M0 12.5 C1.53 4.19, 4.48 0.13, 12.5 0 M0 12.5 C-0.88 3.69, 3.25 -1.78, 12.5 0" stroke="#495057" stroke-width="1" fill="none"></path></g><g transform="translate(739.5 355.5) rotate(0 33.5 12.5)"><text x="33.5" y="18" font-family="Virgil, Segoe UI Emoji" font-size="20px" fill="#495057" text-anchor="middle" style="white-space: pre;" direction="ltr">LOGIN</text></g><g transform="translate(229 314) rotate(0 25 12.5)"><text x="0" y="18" font-family="Virgil, Segoe UI Emoji" font-size="20px" fill="#495057" text-anchor="start" style="white-space: pre;" direction="ltr">&lt;img&gt;</text></g><g stroke-linecap="round" transform="translate(19 1469) rotate(0 522.5 305.4999999999999)"><path d="M32 0 M32 0 C323.64 0.07, 615.77 -0.47, 1013 0 M32 0 C408.54 -0.04, 784.36 0.17, 1013 0 M1013 0 C1034.85 1.04, 1045.65 10.88, 1045 32 M1013 0 C1035.06 -1.36, 1045.88 8.99, 1045 32 M1045 32 C1046.82 235.84, 1046.61 440.29, 1045 579 M1045 32 C1044.93 181.03, 1045.47 330.93, 1045 579 M1045 579 C1045.41 600.97, 1035.22 611.52, 1013 611 M1045 579 C1045.15 598.9, 1036.03 610.53, 1013 611 M1013 611 C761.03 607.89, 509.53 607.97, 32 611 M1013 611 C752.3 608.36, 490.91 608.3, 32 611 M32 611 C12.31 610.01, -0.52 600.37, 0 579 M32 611 C10.31 610.42, -1.26 602.63, 0 579 M0 579 C0.08 432.21, 1.11 286.62, 0 32 M0 579 C-1.08 436.59, -0.89 293.63, 0 32 M0 32 C0.13 9.9, 10.25 -0.8, 32 0 M0 32 C-1.78 8.55, 11.68 -1.4, 32 0" stroke="#495057" stroke-width="1" fill="none"></path></g><g transform="translate(63 1560) rotate(0 45.5 12.5)"><text x="0" y="18" font-family="Virgil, Segoe UI Emoji" font-size="20px" fill="#495057" text-anchor="start" style="white-space: pre;" direction="ltr">    Name</text></g><g transform="translate(235 1561) rotate(0 39.5 12.5)"><text x="0" y="18" font-family="Virgil, Segoe UI Emoji" font-size="20px" fill="#495057" text-anchor="start" style="white-space: pre;" direction="ltr">Surname</text></g><g transform="translate(368 1563) rotate(0 71 12.5)"><text x="0" y="18" font-family="Virgil, Segoe UI Emoji" font-size="20px" fill="#495057" text-anchor="start" style="white-space: pre;" direction="ltr">Date of Birth</text></g><g transform="translate(102 1605) rotate(0 29 12.5)"><text x="0" y="18" font-family="Virgil, Segoe UI Emoji" font-size="20px" fill="#495057" text-anchor="start" style="white-space: pre;" direction="ltr">Gianni</text></g><g transform="translate(231 1604) rotate(0 25.5 12.5)"><text x="0" y="18" font-family="Virgil, Segoe UI Emoji" font-size="20px" fill="#495057" text-anchor="start" style="white-space: pre;" direction="ltr">Smith</text></g><g transform="translate(366 1604) rotate(0 37.5 12.5)"><text x="0" y="18" font-family="Virgil, Segoe UI Emoji" font-size="20px" fill="#495057" text-anchor="start" style="white-space: pre;" direction="ltr">10-10-10</text></g><g stroke-linecap="round" transform="translate(855 1594) rotate(0 65.99999999999994 16.5)"><path d="M59.41 0.61 C69.77 0.07, 83.16 0.6, 93.21 1.54 C103.27 2.47, 113.27 4.13, 119.74 6.22 C126.21 8.31, 130.82 11.07, 132.03 14.06 C133.24 17.04, 131.59 21.53, 127 24.13 C122.41 26.73, 113.5 28.27, 104.49 29.65 C95.48 31.04, 83.69 32.17, 72.96 32.45 C62.23 32.72, 50.15 32.36, 40.09 31.3 C30.03 30.23, 19.29 28.37, 12.61 26.05 C5.93 23.74, 0.98 20.02, 0 17.39 C-0.98 14.77, 2.15 12.64, 6.72 10.32 C11.3 8, 16.75 5.13, 27.45 3.46 C38.15 1.79, 61.92 0.85, 70.91 0.3 C79.91 -0.25, 81.44 -0.03, 81.42 0.17 M51.8 0.38 C61.77 -0.19, 76.33 0.19, 86.74 0.92 C97.15 1.64, 107.13 2.59, 114.25 4.75 C121.37 6.9, 127.08 11.19, 129.48 13.85 C131.89 16.51, 131.91 18.01, 128.65 20.69 C125.4 23.36, 118.19 28, 109.98 29.92 C101.77 31.84, 90.06 31.88, 79.4 32.23 C68.74 32.57, 56.46 32.9, 46.04 32 C35.61 31.09, 24.03 28.87, 16.86 26.8 C9.69 24.72, 5.4 21.95, 3.03 19.54 C0.66 17.14, -0.25 15.08, 2.65 12.35 C5.55 9.62, 12.11 5.16, 20.45 3.16 C28.79 1.16, 47.52 0.66, 52.71 0.36 C57.89 0.05, 51.56 1.16, 51.56 1.32" stroke="#495057" stroke-width="1" fill="none"></path></g><g transform="translate(886 1600) rotate(0 31 12.5)"><text x="0" y="18" font-family="Virgil, Segoe UI Emoji" font-size="20px" fill="#495057" text-anchor="start" style="white-space: pre;" direction="ltr">Detail</text></g><g transform="translate(579 1564) rotate(0 25 12.5)"><text x="0" y="18" font-family="Virgil, Segoe UI Emoji" font-size="20px" fill="#495057" text-anchor="start" style="white-space: pre;" direction="ltr">Email</text></g><g transform="translate(560 1601) rotate(0 103.5 12.5)"><text x="0" y="18" font-family="Virgil, Segoe UI Emoji" font-size="20px" fill="#495057" text-anchor="start" style="white-space: pre;" direction="ltr">gianni.smith@gmail.com</text></g><g transform="translate(101.5 1654) rotate(0 29 12.5)"><text x="0" y="18" font-family="Virgil, Segoe UI Emoji" font-size="20px" fill="#495057" text-anchor="start" style="white-space: pre;" direction="ltr">Gianni</text></g><g transform="translate(230.5 1653) rotate(0 25.5 12.5)"><text x="0" y="18" font-family="Virgil, Segoe UI Emoji" font-size="20px" fill="#495057" text-anchor="start" style="white-space: pre;" direction="ltr">Smith</text></g><g transform="translate(365.5 1653) rotate(0 37.5 12.5)"><text x="0" y="18" font-family="Virgil, Segoe UI Emoji" font-size="20px" fill="#495057" text-anchor="start" style="white-space: pre;" direction="ltr">10-10-10</text></g><g stroke-linecap="round" transform="translate(854.5 1643) rotate(0 65.99999999999994 16.5)"><path d="M75.7 0.93 C86.42 1, 99.9 1.8, 108.52 3.43 C117.15 5.06, 123.75 7.94, 127.45 10.72 C131.15 13.5, 132.46 17.38, 130.71 20.09 C128.96 22.79, 123.84 25.02, 116.96 26.94 C110.08 28.85, 99.79 30.42, 89.42 31.56 C79.05 32.7, 65.5 34.13, 54.75 33.79 C44 33.45, 33.27 31.34, 24.93 29.51 C16.58 27.68, 8.64 25.42, 4.67 22.83 C0.69 20.24, -0.49 16.62, 1.09 13.96 C2.67 11.29, 7.29 9.05, 14.15 6.84 C21.01 4.62, 30.39 1.81, 42.24 0.65 C54.09 -0.51, 76.97 -0.3, 85.25 -0.12 C93.53 0.05, 92.24 1.28, 91.91 1.69 M55.72 -0.01 C65.82 -0.6, 77.66 -0.35, 88.04 0.52 C98.42 1.39, 110.88 3.01, 117.98 5.21 C125.08 7.41, 129.04 10.96, 130.66 13.73 C132.28 16.5, 131.57 19.01, 127.69 21.83 C123.81 24.66, 115.88 28.94, 107.37 30.69 C98.87 32.43, 87.24 32.28, 76.68 32.31 C66.11 32.35, 54.42 31.64, 43.99 30.91 C33.56 30.17, 21.28 29.93, 14.1 27.9 C6.93 25.86, 2.49 21.66, 0.93 18.71 C-0.64 15.76, 1 12.49, 4.7 10.2 C8.4 7.91, 14.78 6.58, 23.14 4.96 C31.5 3.34, 49.52 1.3, 54.85 0.47 C60.19 -0.35, 55.02 -0.15, 55.15 -0.01" stroke="#495057" stroke-width="1" fill="none"></path></g><g transform="translate(885.5 1649) rotate(0 31 12.5)"><text x="0" y="18" font-family="Virgil, Segoe UI Emoji" font-size="20px" fill="#495057" text-anchor="start" style="white-space: pre;" direction="ltr">Detail</text></g><g transform="translate(559.5 1650) rotate(0 103.5 12.5)"><text x="0" y="18" font-family="Virgil, Segoe UI Emoji" font-size="20px" fill="#495057" text-anchor="start" style="white-space: pre;" direction="ltr">gianni.smith@gmail.com</text></g><g transform="translate(99 1499) rotate(0 66.5 12.5)"><text x="0" y="18" font-family="Virgil, Segoe UI Emoji" font-size="20px" fill="#495057" text-anchor="start" style="white-space: pre;" direction="ltr">Employees (+)</text></g><g stroke-linecap="round"><g transform="translate(238 1511) rotate(0 455.55501218868886 2.106330423057045)"><path d="M0.46 -0.88 C152.37 0.09, 760.17 4.32, 911.87 5.09 M-0.76 1.28 C151.04 2, 759.63 2.93, 911.38 3.54" stroke="#495057" stroke-width="1" fill="none"></path></g><g transform="translate(238 1511) rotate(0 455.55501218868886 2.106330423057045)"><path d="M881.7 15.17 C894.4 9.71, 901.53 7.08, 910.45 5.5 M882.81 12.91 C891.86 11.52, 898.77 8.52, 911.82 3.8" stroke="#495057" stroke-width="1" fill="none"></path></g><g transform="translate(238 1511) rotate(0 455.55501218868886 2.106330423057045)"><path d="M881.75 -5.35 C894.31 -4.01, 901.43 0.17, 910.45 5.5 M882.86 -7.62 C891.91 -3.4, 898.8 -0.8, 911.82 3.8" stroke="#495057" stroke-width="1" fill="none"></path></g></g><mask></mask><g transform="translate(1176 1501) rotate(0 185 37.5)"><text x="0" y="18" font-family="Virgil, Segoe UI Emoji" font-size="20px" fill="#495057" text-anchor="start" style="white-space: pre;" direction="ltr">If user click on (+) </text><text x="0" y="43" font-family="Virgil, Segoe UI Emoji" font-size="20px" fill="#495057" text-anchor="start" style="white-space: pre;" direction="ltr">button, will be redirect on new page</text><text x="0" y="68" font-family="Virgil, Segoe UI Emoji" font-size="20px" fill="#495057" text-anchor="start" style="white-space: pre;" direction="ltr">that shows form to save new record.</text></g><g stroke-linecap="round" transform="translate(24 2128) rotate(0 516.5 282)"><path d="M32 0 M32 0 C360.45 -3.02, 687.28 -2.72, 1001 0 M32 0 C277.66 0.99, 523.16 0.72, 1001 0 M1001 0 C1024.33 1.08, 1033.41 11.3, 1033 32 M1001 0 C1023.35 0.6, 1033.15 9.23, 1033 32 M1033 32 C1033.11 218.35, 1032.56 405.98, 1033 532 M1033 32 C1033.02 206.74, 1033.43 381.95, 1033 532 M1033 532 C1031.92 552.67, 1023.97 563.01, 1001 564 M1033 532 C1032.4 553.37, 1021.98 563.42, 1001 564 M1001 564 C763.24 563.18, 525.39 562.12, 32 564 M1001 564 C655.61 562.33, 309.71 562.79, 32 564 M32 564 C10.69 564.32, 0.13 552.56, 0 532 M32 564 C10.19 563.08, -1.78 551.21, 0 532 M0 532 C1.33 359.73, 0.45 187.4, 0 32 M0 532 C0.42 389.91, 0.67 248.51, 0 32 M0 32 C-0.75 9.99, 11.19 -1.51, 32 0 M0 32 C1.53 11.09, 11.54 1.7, 32 0" stroke="#495057" stroke-width="1" fill="none"></path></g><g transform="translate(75 2166) rotate(0 85 12.5)"><text x="0" y="18" font-family="Virgil, Segoe UI Emoji" font-size="20px" fill="#495057" text-anchor="start" style="white-space: pre;" direction="ltr">Add new employee</text></g><g stroke-linecap="round" transform="translate(74 2224) rotate(0 112.5 20)"><path d="M10 0 M10 0 C86 0.68, 161.89 2.23, 215 0 M10 0 C65.66 -0.49, 122.84 0.73, 215 0 M215 0 C222.08 0.64, 225.88 3.86, 225 10 M215 0 C221.81 -1.43, 226.7 2.86, 225 10 M225 10 C225.06 15.14, 226.13 20.46, 225 30 M225 10 C225.51 15.16, 224.37 20.31, 225 30 M225 30 C226.64 35.68, 221.15 40.03, 215 40 M225 30 C224.65 36.09, 220.4 42.3, 215 40 M215 40 C158.94 39.67, 106.44 41, 10 40 M215 40 C161.12 39.97, 108.04 39.43, 10 40 M10 40 C3.46 39.23, -0.41 35.87, 0 30 M10 40 C1.55 37.88, 1.01 35.26, 0 30 M0 30 C-1.95 22.76, -0.35 18.75, 0 10 M0 30 C0.54 24.04, -0.36 17.14, 0 10 M0 10 C0.53 1.82, 4.67 0.37, 10 0 M0 10 C0.87 5.03, 4.18 0.38, 10 0" stroke="#495057" stroke-width="1" fill="none"></path></g><g stroke-linecap="round" transform="translate(358.5 2224) rotate(0 112.5 20)"><path d="M10 0 M10 0 C90.31 -0.46, 171.97 -0.11, 215 0 M10 0 C71.44 1.54, 134.82 0.83, 215 0 M215 0 C222.3 0.88, 225.52 3.46, 225 10 M215 0 C220.23 1.7, 224.53 2.34, 225 10 M225 10 C224.84 18.3, 225.03 23.92, 225 30 M225 10 C224.71 14.61, 224.54 21.13, 225 30 M225 30 C224.01 36.15, 221.7 39.69, 215 40 M225 30 C224.42 35.4, 223.96 39.25, 215 40 M215 40 C158.28 39.7, 104.25 38, 10 40 M215 40 C145.76 39.2, 75.29 39.24, 10 40 M10 40 C2.56 39.59, -0.8 35.12, 0 30 M10 40 C1.21 41.01, -1.4 35.97, 0 30 M0 30 C-1.76 23.4, -0.38 17.72, 0 10 M0 30 C0.44 23.83, -0.2 18.67, 0 10 M0 10 C-1.51 4.67, 3.71 0.76, 10 0 M0 10 C1.7 4.18, 3.71 -1.89, 10 0" stroke="#495057" stroke-width="1" fill="none"></path></g><g stroke-linecap="round" transform="translate(633.5 2225) rotate(0 112.5 20)"><path d="M10 0 M10 0 C65.23 1.55, 121.65 -0.14, 215 0 M10 0 C69.65 1.98, 127.71 1.78, 215 0 M215 0 C222.55 0.52, 225.13 2.09, 225 10 M215 0 C223.37 -0.47, 224.01 4.83, 225 10 M225 10 C225.99 14.6, 224.31 17.98, 225 30 M225 10 C224.58 14.36, 225.94 18.89, 225 30 M225 30 C224.48 36.7, 221.36 39.5, 215 40 M225 30 C223.74 38.96, 220.91 39.31, 215 40 M215 40 C142.96 38.57, 68.21 39.33, 10 40 M215 40 C161.52 41.54, 108.07 41.06, 10 40 M10 40 C2.92 39.2, -1.55 34.82, 0 30 M10 40 C4.34 38.6, -0.69 36.98, 0 30 M0 30 C-0.14 24.39, 0.45 19.49, 0 10 M0 30 C-0.48 25.09, 0.16 20.1, 0 10 M0 10 C1.33 3.71, 4.09 1.48, 10 0 M0 10 C0.85 3.71, 1.44 1.39, 10 0" stroke="#495057" stroke-width="1" fill="none"></path></g><g stroke-linecap="round" transform="translate(74.75 2309.5) rotate(0 112.5 20)"><path d="M10 0 M10 0 C69.06 0.37, 124.7 0.61, 215 0 M10 0 C64.71 -1.64, 118.73 -1.43, 215 0 M215 0 C222.19 0.13, 223.75 4.81, 225 10 M215 0 C221.19 -0.99, 226.5 1.51, 225 10 M225 10 C225.19 15.25, 224.15 20.54, 225 30 M225 10 C224.64 18, 224.47 24.1, 225 30 M225 30 C225.03 36.36, 221.16 38.9, 215 40 M225 30 C227.3 35.91, 220.98 41.3, 215 40 M215 40 C168.12 40.34, 122.04 40.34, 10 40 M215 40 C162.75 40.08, 109.88 39.84, 10 40 M10 40 C2.53 38.45, -1.84 37.54, 0 30 M10 40 C1.93 39.31, 0.31 35.69, 0 30 M0 30 C-0.28 26.18, -0.02 20.41, 0 10 M0 30 C-0.4 23.23, -0.81 16.59, 0 10 M0 10 C0.37 4.09, 4.81 0.74, 10 0 M0 10 C0.38 1.44, 4.72 -2.26, 10 0" stroke="#495057" stroke-width="1" fill="none"></path></g><g stroke-linecap="round" transform="translate(359.25 2309.5) rotate(0 112.5 20)"><path d="M10 0 M10 0 C73.25 -1.73, 137.23 -2.42, 215 0 M10 0 C54.89 -0.71, 99.82 -0.76, 215 0 M215 0 C221.79 -1.25, 226.48 2.92, 225 10 M215 0 C220.67 1.5, 223.18 3.25, 225 10 M225 10 C224.42 15.15, 223.79 23.18, 225 30 M225 10 C225.71 15.18, 224.63 21.36, 225 30 M225 30 C224.69 36.16, 220.57 42, 215 40 M225 30 C224.25 35.98, 222.96 38.36, 215 40 M215 40 C168.48 40.7, 122.66 39.18, 10 40 M215 40 C137.85 39.95, 60.39 39.93, 10 40 M10 40 C1.78 38.16, 0.88 35.45, 0 30 M10 40 C2.64 40.31, -0.97 34.46, 0 30 M0 30 C0.29 25.64, -1.39 22.72, 0 10 M0 30 C0.34 22.65, 0.74 16.99, 0 10 M0 10 C0.76 4.81, 4.07 0.33, 10 0 M0 10 C-1.89 4.72, 1.07 2.19, 10 0" stroke="#495057" stroke-width="1" fill="none"></path></g><g stroke-linecap="round" transform="translate(634.25 2310.5) rotate(0 112.5 20)"><path d="M10 0 M10 0 C62.03 0.25, 113.31 -0.97, 215 0 M10 0 C92.23 0.02, 174.12 -0.32, 215 0 M215 0 C220.42 1.48, 224.59 2.47, 225 10 M215 0 C223.16 -1.82, 224.92 3.33, 225 10 M225 10 C224.17 15.69, 226.2 23.67, 225 30 M225 10 C224.44 14.66, 224.95 19.68, 225 30 M225 30 C224.5 35.57, 223.66 39.34, 215 40 M225 30 C224.31 37.96, 220.02 38.24, 215 40 M215 40 C142.63 38.59, 68 40.65, 10 40 M215 40 C152.89 39.93, 91.1 39.42, 10 40 M10 40 C1.49 40.88, -1.22 36.06, 0 30 M10 40 C3.65 39.03, -2.21 34.55, 0 30 M0 30 C-0.16 22.9, 1.08 19.25, 0 10 M0 30 C-0.69 25.42, 0.25 19.88, 0 10 M0 10 C1.48 4.07, 3.66 -1.65, 10 0 M0 10 C1.39 1.07, 5.52 -0.2, 10 0" stroke="#495057" stroke-width="1" fill="none"></path></g><g stroke-linecap="round" transform="translate(78.75 2384.5) rotate(0 112.5 20)"><path d="M10 0 M10 0 C91.32 -0.69, 171.65 1.72, 215 0 M10 0 C82.99 -0.35, 155.26 -1.14, 215 0 M215 0 C223.15 -0.41, 224.14 4.64, 225 10 M215 0 C219.84 -0.08, 225 4.48, 225 10 M225 10 C223.62 17.37, 224.6 21.3, 225 30 M225 10 C224.9 15.35, 225.01 20.42, 225 30 M225 30 C223.9 38.66, 221.01 39.4, 215 40 M225 30 C226.3 35.02, 219.91 41.3, 215 40 M215 40 C153.15 39.96, 94.06 40.77, 10 40 M215 40 C150.08 38.94, 84.84 38.47, 10 40 M10 40 C4.21 38.78, -0.6 36.94, 0 30 M10 40 C2.36 37.79, -2.12 36.29, 0 30 M0 30 C-1.45 25.5, 0.57 18.17, 0 10 M0 30 C0.61 24.87, 0.33 20.1, 0 10 M0 10 C0.74 3.66, 1.69 1.21, 10 0 M0 10 C-2.26 5.52, 3.13 1.68, 10 0" stroke="#495057" stroke-width="1" fill="none"></path></g><g stroke-linecap="round" transform="translate(363.25 2384.5) rotate(0 112.5 20)"><path d="M10 0 M10 0 C65.34 -1.22, 123.73 1.21, 215 0 M10 0 C75.92 -0.75, 140.83 -0.15, 215 0 M215 0 C221.25 -0.86, 226.3 1.75, 225 10 M215 0 C221.58 0, 226.15 3.55, 225 10 M225 10 C226.1 14.99, 223.83 19.98, 225 30 M225 10 C224.92 17.49, 224.65 24.73, 225 30 M225 30 C227 36.01, 221.07 41.13, 215 40 M225 30 C223.36 34.91, 222.97 39.96, 215 40 M215 40 C160.72 40.65, 108.05 39.57, 10 40 M215 40 C151.85 38.93, 88.6 40.01, 10 40 M10 40 C2.11 39.4, 0.27 35.82, 0 30 M10 40 C1.13 37.88, -0.38 36.14, 0 30 M0 30 C1.06 24.34, -0.73 16.8, 0 10 M0 30 C0.34 23.85, 0.89 17.32, 0 10 M0 10 C0.33 1.69, 4.54 -1.97, 10 0 M0 10 C2.19 3.13, 5.01 -0.4, 10 0" stroke="#495057" stroke-width="1" fill="none"></path></g><g stroke-linecap="round" transform="translate(638.25 2385.5) rotate(0 112.5 20)"><path d="M10 0 M10 0 C70.71 2.43, 135.3 1.01, 215 0 M10 0 C78.09 -1.04, 146.73 -0.66, 215 0 M215 0 C220.8 1.3, 223.41 3.26, 225 10 M215 0 C221.67 1.15, 225.22 2.55, 225 10 M225 10 C224.54 14.07, 224.21 21.95, 225 30 M225 10 C224.79 14.76, 224.4 21.02, 225 30 M225 30 C224.34 36.07, 222.79 38.57, 215 40 M225 30 C223.24 37.97, 221.63 39.1, 215 40 M215 40 C146.44 39.21, 75.43 39.3, 10 40 M215 40 C160.69 38.45, 108.15 38.73, 10 40 M10 40 C2.73 40.27, -0.85 34.75, 0 30 M10 40 C1.21 39.62, -0.53 36.97, 0 30 M0 30 C0.74 23.45, -0.54 18.94, 0 10 M0 30 C0.24 26.25, 0.24 21.18, 0 10 M0 10 C-1.65 4.54, 1.37 1.9, 10 0 M0 10 C-0.2 5.01, 2.93 -0.07, 10 0" stroke="#495057" stroke-width="1" fill="none"></path></g><g transform="translate(359 2533) rotate(0 49 12.5)"><text x="0" y="18" font-family="Virgil, Segoe UI Emoji" font-size="20px" fill="#495057" text-anchor="start" style="white-space: pre;" direction="ltr">    Save </text></g><g transform="translate(543 2537) rotate(0 31.5 12.5)"><text x="0" y="18" font-family="Virgil, Segoe UI Emoji" font-size="20px" fill="#495057" text-anchor="start" style="white-space: pre;" direction="ltr">Cancel</text></g><g stroke-linecap="round"><g transform="translate(406 2572) rotate(0 273.9570938817644 93.42876665172633)"><path d="M0.65 0.25 C92.21 31.3, 457.1 156.39, 548.38 187.53 M-0.47 -0.67 C91.05 30.53, 456.27 154.17, 547.64 185.68" stroke="#495057" stroke-width="1" fill="none"></path></g><g transform="translate(406 2572) rotate(0 273.9570938817644 93.42876665172633)"><path d="M518.05 186.93 C525.06 186.52, 530.85 184.62, 549.11 185.27 M517.6 186.29 C525.84 186.47, 532.7 185.79, 546.98 186.27" stroke="#495057" stroke-width="1" fill="none"></path></g><g transform="translate(406 2572) rotate(0 273.9570938817644 93.42876665172633)"><path d="M524.68 167.51 C530.44 171.37, 534.78 173.7, 549.11 185.27 M524.23 166.87 C530.89 171.98, 536.05 176.29, 546.98 186.27" stroke="#495057" stroke-width="1" fill="none"></path></g></g><mask></mask><g transform="translate(967 2746) rotate(0 246 12.5)"><text x="0" y="18" font-family="Virgil, Segoe UI Emoji" font-size="20px" fill="#495057" text-anchor="start" style="white-space: pre;" direction="ltr">When you click on save you will be redirect on list</text></g><g transform="translate(870 2205) rotate(0 31 129)" stroke="none"><path fill="#495057" d="M 0,-1.67 Q 0,-1.67 1.72,-1.71 3.44,-1.75 5.62,-1.69 7.79,-1.63 10.72,-1.59 13.66,-1.54 16.15,-1.22 18.63,-0.89 20.93,-0.14 23.23,0.60 24.92,0.82 26.61,1.04 28.56,1.45 30.51,1.86 32.64,2.73 34.77,3.59 36.74,6.46 38.71,9.34 40.32,12.85 41.94,16.36 43.80,24.57 45.65,32.77 48.14,43.09 50.63,53.41 53.70,67.01 56.77,80.61 58.66,96.23 60.54,111.85 61.34,128.28 62.14,144.71 62.48,160.32 62.82,175.92 62.96,190.03 63.11,204.14 63.17,215.31 63.23,226.48 63.25,232.38 63.28,238.27 63.29,241.35 63.30,244.44 63.30,247.18 63.30,249.93 63.33,251.96 63.35,253.99 63.27,255.50 63.19,257.00 62.16,257.94 61.13,258.87 59.64,259.26 58.14,259.64 56.00,259.92 53.85,260.19 51.11,259.61 48.36,259.03 45.31,258.12 42.25,257.22 39.02,256.79 35.79,256.37 32.47,255.25 29.15,254.13 27.55,253.75 25.95,253.37 24.51,253.26 23.07,253.15 20.12,252.70 17.16,252.26 14.16,251.76 11.17,251.26 8.57,251.09 5.97,250.93 5.68,250.85 5.40,250.78 5.15,250.61 4.90,250.45 4.72,250.21 4.54,249.98 4.45,249.70 4.35,249.42 4.35,249.13 4.35,248.83 4.44,248.55 4.53,248.27 4.71,248.03 4.89,247.79 5.13,247.63 5.37,247.46 5.66,247.38 5.94,247.30 6.24,247.31 6.53,247.33 6.81,247.43 7.09,247.54 7.31,247.73 7.54,247.92 7.69,248.17 7.85,248.43 7.91,248.71 7.98,249.00 7.95,249.30 7.92,249.59 7.79,249.86 7.67,250.13 7.47,250.35 7.27,250.56 7.01,250.70 6.75,250.84 6.46,250.89 6.16,250.94 5.87,250.90 5.58,250.85 5.32,250.71 5.06,250.58 4.85,250.36 4.65,250.15 4.52,249.88 4.39,249.61 4.36,249.32 4.33,249.03 4.39,248.74 4.45,248.45 4.60,248.19 4.75,247.94 4.98,247.75 5.20,247.55 5.47,247.44 5.75,247.33 6.04,247.31 6.34,247.29 6.34,247.29 6.34,247.29 8.99,247.67 11.64,248.04 14.61,248.43 17.59,248.81 20.55,249.09 23.52,249.38 25.19,249.63 26.86,249.89 28.53,250.37 30.19,250.85 33.19,251.75 36.19,252.65 39.73,252.92 43.26,253.19 46.65,253.92 50.03,254.64 51.87,255.16 53.71,255.69 55.60,255.71 57.48,255.73 59.06,254.86 60.63,254.00 60.65,251.97 60.67,249.94 60.67,247.19 60.66,244.45 60.65,241.37 60.64,238.28 60.61,232.39 60.58,226.49 60.52,215.33 60.46,204.17 60.31,190.07 60.16,175.98 59.82,160.41 59.48,144.84 58.68,128.50 57.88,112.17 56.01,96.69 54.13,81.20 51.05,67.63 47.97,54.05 45.46,43.72 42.95,33.38 41.16,25.46 39.37,17.54 37.82,14.22 36.27,10.91 34.84,8.54 33.42,6.18 31.63,5.54 29.84,4.91 27.97,4.49 26.11,4.08 24.23,3.70 22.35,3.33 20.31,2.69 18.27,2.04 15.96,1.79 13.65,1.54 10.72,1.59 7.79,1.63 5.62,1.69 3.44,1.75 1.72,1.71 0,1.67 -0.20,1.65 -0.40,1.63 -0.59,1.55 -0.78,1.48 -0.94,1.37 -1.11,1.25 -1.24,1.10 -1.38,0.95 -1.47,0.77 -1.57,0.59 -1.61,0.39 -1.66,0.20 -1.66,-0.00 -1.66,-0.20 -1.61,-0.39 -1.57,-0.59 -1.47,-0.77 -1.38,-0.95 -1.24,-1.10 -1.11,-1.25 -0.94,-1.37 -0.78,-1.48 -0.59,-1.55 -0.40,-1.63 -0.20,-1.65 0.00,-1.67 0.00,-1.67 L 0,-1.67 Z"></path></g><g transform="translate(933 2321) rotate(0 72 2.5)" stroke="none"><path fill="#495057" d="M 0.34,-1.52 Q 0.34,-1.52 2.86,-0.91 5.38,-0.30 11.17,0.81 16.95,1.94 22.19,2.42 27.44,2.90 34.08,3.11 40.72,3.32 51.76,3.41 62.80,3.51 76.35,3.55 89.89,3.59 102.92,3.61 115.95,3.63 124.01,3.64 132.07,3.65 135.50,3.66 138.93,3.66 139.14,3.70 139.35,3.73 139.54,3.83 139.73,3.93 139.88,4.09 140.03,4.25 140.12,4.44 140.21,4.64 140.23,4.85 140.25,5.06 140.21,5.27 140.16,5.48 140.05,5.67 139.94,5.85 139.78,5.99 139.61,6.13 139.41,6.21 139.21,6.29 139.00,6.30 138.78,6.31 138.58,6.25 138.37,6.19 138.19,6.07 138.01,5.95 137.88,5.78 137.76,5.61 137.69,5.41 137.62,5.20 137.62,4.99 137.62,4.77 137.69,4.57 137.76,4.37 137.89,4.20 138.02,4.03 138.19,3.91 138.37,3.79 138.58,3.73 138.79,3.67 139.00,3.68 139.21,3.69 139.41,3.77 139.61,3.85 139.78,3.99 139.94,4.13 140.05,4.32 140.16,4.50 140.21,4.71 140.25,4.92 140.23,5.13 140.21,5.35 140.12,5.54 140.03,5.74 139.88,5.89 139.73,6.05 139.54,6.15 139.35,6.25 139.14,6.28 138.93,6.32 138.93,6.32 138.93,6.32 135.50,6.32 132.07,6.32 124.01,6.31 115.94,6.31 102.91,6.30 89.89,6.29 76.34,6.26 62.78,6.23 51.71,6.16 40.64,6.08 33.91,5.89 27.19,5.70 21.80,5.24 16.41,4.78 10.57,3.69 4.72,2.60 2.18,2.06 -0.34,1.52 -0.52,1.45 -0.70,1.39 -0.85,1.29 -1.01,1.18 -1.14,1.04 -1.26,0.91 -1.35,0.74 -1.45,0.58 -1.49,0.39 -1.54,0.21 -1.55,0.02 -1.55,-0.16 -1.51,-0.34 -1.47,-0.52 -1.38,-0.69 -1.30,-0.86 -1.17,-1.00 -1.05,-1.15 -0.90,-1.26 -0.75,-1.36 -0.57,-1.43 -0.40,-1.50 -0.21,-1.53 -0.02,-1.56 0.15,-1.54 0.34,-1.52 0.34,-1.52 L 0.34,-1.52 Z"></path></g><g transform="translate(1093 2312) rotate(0 53.5 12.5)"><text x="0" y="18" font-family="Virgil, Segoe UI Emoji" font-size="20px" fill="#495057" text-anchor="start" style="white-space: pre;" direction="ltr">Form fields</text></g><g stroke-linecap="round" transform="translate(24.5 2796.5) rotate(0 516.5 376.5)"><path d="M32 0 M32 0 C364.92 0.34, 698.67 -0.59, 1001 0 M32 0 C385.79 0.34, 739.61 0.01, 1001 0 M1001 0 C1021.49 -1.31, 1034.18 10.34, 1033 32 M1001 0 C1021.09 -0.76, 1034.89 9.53, 1033 32 M1033 32 C1032.85 220.33, 1033.85 409.28, 1033 721 M1033 32 C1034.25 218.29, 1034.55 403.97, 1033 721 M1033 721 C1033.82 741.55, 1021.44 754.53, 1001 753 M1033 721 C1033.03 742.7, 1022.48 752.12, 1001 753 M1001 753 C729.63 750.35, 459.25 749.75, 32 753 M1001 753 C696.77 749.22, 393.19 749.34, 32 753 M32 753 C10.46 751.57, 1.04 742.93, 0 721 M32 753 C9.8 752.22, 0.6 740.6, 0 721 M0 721 C0.08 468.64, -0.38 215.02, 0 32 M0 721 C2.68 473.03, 2.64 224.46, 0 32 M0 32 C1.54 8.81, 12.57 1.4, 32 0 M0 32 C2.02 9.84, 9.5 1.58, 32 0" stroke="#495057" stroke-width="1" fill="none"></path></g><g transform="translate(75.5 2834.5) rotate(0 59 12.5)"><text x="0" y="18" font-family="Virgil, Segoe UI Emoji" font-size="20px" fill="#495057" text-anchor="start" style="white-space: pre;" direction="ltr">Gianni Smith</text></g><g stroke-linecap="round" transform="translate(71.5 2981.5) rotate(0 112.5 20)"><path d="M10 0 M10 0 C72.44 -2.12, 136.78 -2.77, 215 0 M10 0 C70.83 -1.22, 131.12 -1.5, 215 0 M215 0 C222.85 -0.33, 223.92 2.67, 225 10 M215 0 C223.55 -1.14, 224.4 3.37, 225 10 M225 10 C226.95 15.04, 224.35 22.51, 225 30 M225 10 C224.83 14.18, 225.26 18.75, 225 30 M225 30 C224.11 38.2, 221.69 40.32, 215 40 M225 30 C225.14 35.78, 221.19 39.08, 215 40 M215 40 C168.31 40.26, 124.03 40.05, 10 40 M215 40 C172.95 39.82, 131.23 39.06, 10 40 M10 40 C4.37 40.6, -0.75 35.99, 0 30 M10 40 C3.94 38.27, 1.53 37.09, 0 30 M0 30 C0.18 21.6, 1.06 14.52, 0 10 M0 30 C-0.16 22.07, 0.79 13.27, 0 10 M0 10 C1.9 4.73, 5.09 -0.72, 10 0 M0 10 C-1.16 4.91, 4.02 1.18, 10 0" stroke="#495057" stroke-width="1" fill="none"></path></g><g stroke-linecap="round" transform="translate(356 2981.5) rotate(0 112.5 20)"><path d="M10 0 M10 0 C57.95 1.54, 106.03 0.31, 215 0 M10 0 C71.18 -0.55, 132.39 0.35, 215 0 M215 0 C221.34 -1.08, 224.34 4.97, 225 10 M215 0 C220.53 -0.6, 225.04 2.98, 225 10 M225 10 C224.24 14.9, 226.02 19.56, 225 30 M225 10 C224.72 14.88, 224.72 18.5, 225 30 M225 30 C226.53 36.69, 221.98 40.13, 215 40 M225 30 C224.12 36.19, 220.75 38.22, 215 40 M215 40 C171.87 39.13, 129.06 37.18, 10 40 M215 40 C172.51 39.49, 129.15 40.04, 10 40 M10 40 C3.93 39.25, -0.68 37.19, 0 30 M10 40 C1.6 41.53, 0.43 37.54, 0 30 M0 30 C-1.72 23.73, -2.04 16.95, 0 10 M0 30 C-0.18 24.95, -1.08 19.3, 0 10 M0 10 C1.4 5.09, 2.61 -1.01, 10 0 M0 10 C1.58 4.02, 4.52 -1.19, 10 0" stroke="#495057" stroke-width="1" fill="none"></path></g><g stroke-linecap="round" transform="translate(631 2982.5) rotate(0 112.5 20)"><path d="M10 0 M10 0 C87.83 -0.62, 163.27 0.79, 215 0 M10 0 C81.38 0.04, 154.03 0.48, 215 0 M215 0 C220.59 -0.66, 226.64 2.35, 225 10 M215 0 C221.07 0.04, 224.65 2.75, 225 10 M225 10 C224.6 16.03, 223.77 18.28, 225 30 M225 10 C225.41 16.74, 224.55 25.03, 225 30 M225 30 C225.03 36.98, 221.79 39.23, 215 40 M225 30 C224.52 35.75, 219.88 37.88, 215 40 M215 40 C144.75 38.69, 72.31 37.8, 10 40 M215 40 C156.77 39.6, 99.18 40.5, 10 40 M10 40 C2.58 39.32, 0.53 35.16, 0 30 M10 40 C4.87 40.43, 0.87 38.37, 0 30 M0 30 C1.17 21.29, 1.87 16.34, 0 10 M0 30 C0.81 21.61, 0.99 15.78, 0 10 M0 10 C1.76 2.61, 2.32 1.37, 10 0 M0 10 C0.69 4.52, 2.14 -1.05, 10 0" stroke="#495057" stroke-width="1" fill="none"></path></g><g stroke-linecap="round" transform="translate(72.25 3067) rotate(0 112.5 20)"><path d="M10 0 M10 0 C65.86 -1.26, 124.55 -0.3, 215 0 M10 0 C72.86 1.3, 136.74 0.29, 215 0 M215 0 C221 1.64, 224.01 2.81, 225 10 M215 0 C221.71 -0.35, 224.42 2.07, 225 10 M225 10 C226.06 16.57, 223.4 27.13, 225 30 M225 10 C224.53 15.52, 225.69 21.95, 225 30 M225 30 C225.32 36.79, 220.9 39.59, 215 40 M225 30 C224.08 34.88, 219.55 41.01, 215 40 M215 40 C165.25 38.54, 115.36 39.96, 10 40 M215 40 C157.6 40.27, 101.73 39.48, 10 40 M10 40 C2.65 40.53, -1.51 38, 0 30 M10 40 C3.76 40.87, 1.7 37.52, 0 30 M0 30 C-1.8 25.57, -0.01 18.8, 0 10 M0 30 C-0.92 25.3, 0.7 19.58, 0 10 M0 10 C-0.72 2.32, 4.71 0.6, 10 0 M0 10 C1.18 2.14, 2.29 0.08, 10 0" stroke="#495057" stroke-width="1" fill="none"></path></g><g stroke-linecap="round" transform="translate(356.75 3067) rotate(0 112.5 20)"><path d="M10 0 M10 0 C62.58 1.45, 116.19 1.62, 215 0 M10 0 C65.05 1.05, 118.57 0.9, 215 0 M215 0 C223.31 -0.99, 224.48 3.37, 225 10 M215 0 C221.31 -0.58, 223.74 5.63, 225 10 M225 10 C223.51 13.82, 226.07 20.66, 225 30 M225 10 C224.64 15.98, 225.1 20.59, 225 30 M225 30 C225.13 35.9, 221.25 39.2, 215 40 M225 30 C223.22 34.55, 222.68 38.6, 215 40 M215 40 C157.97 37.58, 104.08 38.81, 10 40 M215 40 C151.29 38.96, 86.32 38.39, 10 40 M10 40 C3.86 38.49, 1.33 37.04, 0 30 M10 40 C4.2 41.7, 0.85 37.04, 0 30 M0 30 C1.78 25.47, 1.34 20.94, 0 10 M0 30 C0.8 24.76, 0.72 17.77, 0 10 M0 10 C-1.01 4.71, 3.93 1.03, 10 0 M0 10 C-1.19 2.29, 3.42 -0.38, 10 0" stroke="#495057" stroke-width="1" fill="none"></path></g><g stroke-linecap="round" transform="translate(631.75 3068) rotate(0 112.5 20)"><path d="M10 0 M10 0 C84.85 0.96, 159.86 -0.54, 215 0 M10 0 C62.69 -1.56, 115.38 -0.35, 215 0 M215 0 C220.68 -0.52, 225.03 3.03, 225 10 M215 0 C221.09 -1.26, 227.3 2.58, 225 10 M225 10 C223.58 16.53, 225.08 20.02, 225 30 M225 10 C225.69 16.84, 225.08 23.71, 225 30 M225 30 C224.23 36.25, 220.87 38.45, 215 40 M225 30 C222.88 37.68, 220.26 39.31, 215 40 M215 40 C149.07 37.95, 86.02 38.48, 10 40 M215 40 C155.88 40.61, 95.92 41.18, 10 40 M10 40 C1.82 41.33, 0.37 37.42, 0 30 M10 40 C5.03 40.85, 0.38 34.77, 0 30 M0 30 C0.02 24.25, -0.15 15.52, 0 10 M0 30 C0.88 23.34, -0.17 14.41, 0 10 M0 10 C1.37 3.93, 4.36 -1.03, 10 0 M0 10 C-1.05 3.42, 2.95 -0.26, 10 0" stroke="#495057" stroke-width="1" fill="none"></path></g><g stroke-linecap="round" transform="translate(76.25 3142) rotate(0 112.5 20)"><path d="M10 0 M10 0 C56.14 0.17, 99.9 -0.75, 215 0 M10 0 C57.59 0, 106.87 -0.14, 215 0 M215 0 C221.15 0.03, 224.69 2.83, 225 10 M215 0 C220.4 2.3, 224.25 2.64, 225 10 M225 10 C225.99 17.09, 224.08 25.07, 225 30 M225 10 C224.92 15.38, 224.97 20.05, 225 30 M225 30 C224.59 35.87, 220.12 38.16, 215 40 M225 30 C226.01 35.26, 220.97 40.31, 215 40 M215 40 C161.9 37.9, 109.61 38.13, 10 40 M215 40 C167.78 40.24, 121.47 39.87, 10 40 M10 40 C4.67 40.37, 0.76 38.14, 0 30 M10 40 C4.18 40.38, -1.89 38.05, 0 30 M0 30 C1.27 25.62, -0.26 23.48, 0 10 M0 30 C0.69 25.5, -0.7 22.41, 0 10 M0 10 C0.6 4.36, 2.3 -0.91, 10 0 M0 10 C0.08 2.95, 3.07 2.16, 10 0" stroke="#495057" stroke-width="1" fill="none"></path></g><g stroke-linecap="round" transform="translate(360.75 3142) rotate(0 112.5 20)"><path d="M10 0 M10 0 C70.92 -1.52, 130.74 -2.08, 215 0 M10 0 C83.3 1.72, 156.75 0.76, 215 0 M215 0 C221.7 -0.31, 224.5 2.24, 225 10 M215 0 C223.96 -0.75, 224.31 4.63, 225 10 M225 10 C224.81 13.79, 225.67 18.36, 225 30 M225 10 C225.31 15.17, 224.77 20.02, 225 30 M225 30 C224.2 35.12, 219.82 40.88, 215 40 M225 30 C223.6 35.97, 221.98 39.03, 215 40 M215 40 C172.75 39.93, 131.13 38.43, 10 40 M215 40 C142.56 39.55, 70.06 39.91, 10 40 M10 40 C3.71 40.76, 1.48 37.41, 0 30 M10 40 C3.71 38.11, 1.39 34.4, 0 30 M0 30 C-0.33 22.03, 1.56 12.34, 0 10 M0 30 C-0.5 21.59, 0.55 14.49, 0 10 M0 10 C1.03 2.3, 2.42 0.07, 10 0 M0 10 C-0.38 3.07, 5.5 0.06, 10 0" stroke="#495057" stroke-width="1" fill="none"></path></g><g stroke-linecap="round" transform="translate(635.75 3143) rotate(0 112.5 20)"><path d="M10 0 M10 0 C70.88 -0.93, 131.81 0.88, 215 0 M10 0 C68.87 0.17, 126.05 0.62, 215 0 M215 0 C221.36 -0.5, 223.9 5.33, 225 10 M215 0 C220.91 -0.69, 226.3 1.69, 225 10 M225 10 C224.33 15.29, 224.33 18.05, 225 30 M225 10 C225.07 17.15, 224.8 24.67, 225 30 M225 30 C223.45 34.82, 222.54 38.78, 215 40 M225 30 C224.31 36.98, 220.69 37.79, 215 40 M215 40 C172.63 39.39, 128.52 40.5, 10 40 M215 40 C147.63 38.7, 80.38 39.54, 10 40 M10 40 C4.09 41.48, 0.74 36.99, 0 30 M10 40 C1.44 41.39, -2.26 38.85, 0 30 M0 30 C-0.21 25.72, -2.01 20.26, 0 10 M0 30 C-0.68 23.29, 0.12 15.72, 0 10 M0 10 C-1.03 2.42, 3.4 -0.33, 10 0 M0 10 C-0.26 5.5, 3.39 -0.46, 10 0" stroke="#495057" stroke-width="1" fill="none"></path></g><g transform="translate(867.5 2962.5) rotate(0 31 129)" stroke="none"><path fill="#495057" d="M 0,-1.67 Q 0,-1.67 1.72,-1.71 3.44,-1.75 5.62,-1.69 7.79,-1.63 10.72,-1.59 13.66,-1.54 16.15,-1.22 18.63,-0.89 20.93,-0.14 23.23,0.60 24.92,0.82 26.61,1.04 28.56,1.45 30.51,1.86 32.64,2.73 34.77,3.59 36.74,6.46 38.71,9.34 40.32,12.85 41.94,16.36 43.80,24.57 45.65,32.77 48.14,43.09 50.63,53.41 53.70,67.01 56.77,80.61 58.66,96.23 60.54,111.85 61.34,128.28 62.14,144.71 62.48,160.32 62.82,175.92 62.96,190.03 63.11,204.14 63.17,215.31 63.23,226.48 63.25,232.38 63.28,238.27 63.29,241.35 63.30,244.44 63.30,247.18 63.30,249.93 63.33,251.96 63.35,253.99 63.27,255.50 63.19,257.00 62.16,257.94 61.13,258.87 59.64,259.26 58.14,259.64 56.00,259.92 53.85,260.19 51.11,259.61 48.36,259.03 45.31,258.12 42.25,257.22 39.02,256.79 35.79,256.37 32.47,255.25 29.15,254.13 27.55,253.75 25.95,253.37 24.51,253.26 23.07,253.15 20.12,252.70 17.16,252.26 14.16,251.76 11.17,251.26 8.57,251.09 5.97,250.93 5.68,250.85 5.40,250.78 5.15,250.61 4.90,250.45 4.72,250.21 4.54,249.98 4.45,249.70 4.35,249.42 4.35,249.13 4.35,248.83 4.44,248.55 4.53,248.27 4.71,248.03 4.89,247.79 5.13,247.63 5.37,247.46 5.66,247.38 5.94,247.30 6.24,247.31 6.53,247.33 6.81,247.43 7.09,247.54 7.31,247.73 7.54,247.92 7.69,248.17 7.85,248.43 7.91,248.71 7.98,249.00 7.95,249.30 7.92,249.59 7.79,249.86 7.67,250.13 7.47,250.35 7.27,250.56 7.01,250.70 6.75,250.84 6.46,250.89 6.16,250.94 5.87,250.90 5.58,250.85 5.32,250.71 5.06,250.58 4.85,250.36 4.65,250.15 4.52,249.88 4.39,249.61 4.36,249.32 4.33,249.03 4.39,248.74 4.45,248.45 4.60,248.19 4.75,247.94 4.98,247.75 5.20,247.55 5.47,247.44 5.75,247.33 6.04,247.31 6.34,247.29 6.34,247.29 6.34,247.29 8.99,247.67 11.64,248.04 14.61,248.43 17.59,248.81 20.55,249.09 23.52,249.38 25.19,249.63 26.86,249.89 28.53,250.37 30.19,250.85 33.19,251.75 36.19,252.65 39.73,252.92 43.26,253.19 46.65,253.92 50.03,254.64 51.87,255.16 53.71,255.69 55.60,255.71 57.48,255.73 59.06,254.86 60.63,254.00 60.65,251.97 60.67,249.94 60.67,247.19 60.66,244.45 60.65,241.37 60.64,238.28 60.61,232.39 60.58,226.49 60.52,215.33 60.46,204.17 60.31,190.07 60.16,175.98 59.82,160.41 59.48,144.84 58.68,128.50 57.88,112.17 56.01,96.69 54.13,81.20 51.05,67.63 47.97,54.05 45.46,43.72 42.95,33.38 41.16,25.46 39.37,17.54 37.82,14.22 36.27,10.91 34.84,8.54 33.42,6.18 31.63,5.54 29.84,4.91 27.97,4.49 26.11,4.08 24.23,3.70 22.35,3.33 20.31,2.69 18.27,2.04 15.96,1.79 13.65,1.54 10.72,1.59 7.79,1.63 5.62,1.69 3.44,1.75 1.72,1.71 0,1.67 -0.20,1.65 -0.40,1.63 -0.59,1.55 -0.78,1.48 -0.94,1.37 -1.11,1.25 -1.24,1.10 -1.38,0.95 -1.47,0.77 -1.57,0.59 -1.61,0.39 -1.66,0.20 -1.66,-0.00 -1.66,-0.20 -1.61,-0.39 -1.57,-0.59 -1.47,-0.77 -1.38,-0.95 -1.24,-1.10 -1.11,-1.25 -0.94,-1.37 -0.78,-1.48 -0.59,-1.55 -0.40,-1.63 -0.20,-1.65 0.00,-1.67 0.00,-1.67 L 0,-1.67 Z"></path></g><g transform="translate(930.5 3078.5) rotate(0 72 2.5)" stroke="none"><path fill="#495057" d="M 0.34,-1.52 Q 0.34,-1.52 2.86,-0.91 5.38,-0.30 11.17,0.81 16.95,1.94 22.19,2.42 27.44,2.90 34.08,3.11 40.72,3.32 51.76,3.41 62.80,3.51 76.35,3.55 89.89,3.59 102.92,3.61 115.95,3.63 124.01,3.64 132.07,3.65 135.50,3.66 138.93,3.66 139.14,3.70 139.35,3.73 139.54,3.83 139.73,3.93 139.88,4.09 140.03,4.25 140.12,4.44 140.21,4.64 140.23,4.85 140.25,5.06 140.21,5.27 140.16,5.48 140.05,5.67 139.94,5.85 139.78,5.99 139.61,6.13 139.41,6.21 139.21,6.29 139.00,6.30 138.78,6.31 138.58,6.25 138.37,6.19 138.19,6.07 138.01,5.95 137.88,5.78 137.76,5.61 137.69,5.41 137.62,5.20 137.62,4.99 137.62,4.77 137.69,4.57 137.76,4.37 137.89,4.20 138.02,4.03 138.19,3.91 138.37,3.79 138.58,3.73 138.79,3.67 139.00,3.68 139.21,3.69 139.41,3.77 139.61,3.85 139.78,3.99 139.94,4.13 140.05,4.32 140.16,4.50 140.21,4.71 140.25,4.92 140.23,5.13 140.21,5.35 140.12,5.54 140.03,5.74 139.88,5.89 139.73,6.05 139.54,6.15 139.35,6.25 139.14,6.28 138.93,6.32 138.93,6.32 138.93,6.32 135.50,6.32 132.07,6.32 124.01,6.31 115.94,6.31 102.91,6.30 89.89,6.29 76.34,6.26 62.78,6.23 51.71,6.16 40.64,6.08 33.91,5.89 27.19,5.70 21.80,5.24 16.41,4.78 10.57,3.69 4.72,2.60 2.18,2.06 -0.34,1.52 -0.52,1.45 -0.70,1.39 -0.85,1.29 -1.01,1.18 -1.14,1.04 -1.26,0.91 -1.35,0.74 -1.45,0.58 -1.49,0.39 -1.54,0.21 -1.55,0.02 -1.55,-0.16 -1.51,-0.34 -1.47,-0.52 -1.38,-0.69 -1.30,-0.86 -1.17,-1.00 -1.05,-1.15 -0.90,-1.26 -0.75,-1.36 -0.57,-1.43 -0.40,-1.50 -0.21,-1.53 -0.02,-1.56 0.15,-1.54 0.34,-1.52 0.34,-1.52 L 0.34,-1.52 Z"></path></g><g transform="translate(1082.5 3078.5) rotate(0 53.5 12.5)"><text x="0" y="18" font-family="Virgil, Segoe UI Emoji" font-size="20px" fill="#495057" text-anchor="start" style="white-space: pre;" direction="ltr">Form fields</text></g><g transform="translate(77 2914) rotate(0 87.5 12.5)"><text x="0" y="18" font-family="Virgil, Segoe UI Emoji" font-size="20px" fill="#495057" text-anchor="start" style="white-space: pre;" direction="ltr">Anagrafical Data</text></g><g transform="translate(83.5 3255.5) rotate(0 62.5 12.5)"><text x="0" y="18" font-family="Virgil, Segoe UI Emoji" font-size="20px" fill="#495057" text-anchor="start" style="white-space: pre;" direction="ltr">History Rows</text></g><g transform="translate(83 3309.5) rotate(0 44.5 12.5)"><text x="0" y="18" font-family="Virgil, Segoe UI Emoji" font-size="20px" fill="#495057" text-anchor="start" style="white-space: pre;" direction="ltr">Category</text></g><g transform="translate(90 3351.5) rotate(0 25.5 12.5)"><text x="0" y="18" font-family="Virgil, Segoe UI Emoji" font-size="20px" fill="#495057" text-anchor="start" style="white-space: pre;" direction="ltr">INFO</text></g><g stroke-linecap="round" transform="translate(871 3337.5) rotate(0 43 17)"><path d="M37.17 -0.41 C45.19 -1.07, 57.15 -0.04, 64.55 1.74 C71.94 3.52, 78.19 7.32, 81.53 10.26 C84.86 13.19, 85.96 16.17, 84.56 19.35 C83.16 22.52, 79.2 26.84, 73.14 29.32 C67.08 31.81, 56.7 33.91, 48.19 34.27 C39.68 34.63, 29.27 33.15, 22.06 31.49 C14.85 29.83, 8.47 27.24, 4.94 24.32 C1.41 21.4, -0.47 17.26, 0.88 13.95 C2.23 10.64, 6.31 6.91, 13.04 4.45 C19.77 2, 35.94 -0.16, 41.25 -0.77 C46.56 -1.37, 44.92 0.45, 44.91 0.82 M44.54 -0.21 C52.61 0.05, 63.56 2.15, 70.23 4.15 C76.9 6.15, 82.31 8.51, 84.55 11.79 C86.79 15.06, 86.89 20.6, 83.68 23.79 C80.47 26.97, 72.49 29.38, 65.29 30.89 C58.09 32.4, 48.62 32.92, 40.48 32.83 C32.33 32.74, 22.86 32.09, 16.42 30.32 C9.99 28.56, 3.99 25.49, 1.86 22.25 C-0.26 19.02, 0.81 14.03, 3.66 10.91 C6.5 7.78, 12.11 5.08, 18.91 3.51 C25.71 1.93, 39.97 1.8, 44.44 1.47 C48.91 1.13, 45.57 1.44, 45.73 1.47" stroke="#495057" stroke-width="1" fill="none"></path></g><g transform="translate(894 3345.5) rotate(0 19.5 12.5)"><text x="0" y="18" font-family="Virgil, Segoe UI Emoji" font-size="20px" fill="#495057" text-anchor="start" style="white-space: pre;" direction="ltr">edit</text></g><g transform="translate(294 3310.5) rotate(0 23.5 12.5)"><text x="0" y="18" font-family="Virgil, Segoe UI Emoji" font-size="20px" fill="#495057" text-anchor="start" style="white-space: pre;" direction="ltr">Note</text></g><g transform="translate(212 3345.5) rotate(0 100.5 25)"><text x="0" y="18" font-family="Virgil, Segoe UI Emoji" font-size="20px" fill="#495057" text-anchor="start" style="white-space: pre;" direction="ltr">Employee Expiration </text><text x="0" y="43" font-family="Virgil, Segoe UI Emoji" font-size="20px" fill="#495057" text-anchor="start" style="white-space: pre;" direction="ltr">Smart card</text></g><g stroke-linecap="round" transform="translate(962 3337) rotate(0 43 17)"><path d="M31.05 1.2 C38.31 0.05, 49.14 -0.77, 57.19 0.29 C65.24 1.35, 74.6 4.58, 79.33 7.55 C84.06 10.51, 86.07 14.83, 85.58 18.09 C85.08 21.34, 81.39 24.54, 76.37 27.09 C71.34 29.64, 63.44 32.39, 55.42 33.38 C47.4 34.36, 36.35 34.2, 28.25 33.01 C20.16 31.82, 11.62 29.14, 6.85 26.23 C2.08 23.32, -0.61 18.77, -0.37 15.55 C-0.12 12.33, 2.46 9.5, 8.32 6.91 C14.18 4.31, 29.55 1.12, 34.78 -0.03 C40.01 -1.19, 39.64 -0.2, 39.71 -0.03 M39.33 -1.01 C47.44 -1.46, 58.99 1.1, 66.12 2.92 C73.25 4.75, 78.92 7.12, 82.11 9.93 C85.29 12.74, 86.92 16.41, 85.24 19.78 C83.56 23.15, 78.4 27.62, 72.04 30.17 C65.68 32.71, 55.56 34.78, 47.09 35.05 C38.62 35.32, 28.71 33.54, 21.21 31.77 C13.71 30.01, 5.68 27.34, 2.1 24.46 C-1.49 21.59, -2.44 17.72, -0.32 14.51 C1.8 11.3, 8.24 7.62, 14.83 5.21 C21.42 2.79, 34.9 1.04, 39.22 0.01 C43.53 -1.03, 40.37 -1.46, 40.71 -1" stroke="#495057" stroke-width="1" fill="none"></path></g><g transform="translate(984 3340) rotate(0 16.5 12.5)"><text x="0" y="18" font-family="Virgil, Segoe UI Emoji" font-size="20px" fill="#495057" text-anchor="start" style="white-space: pre;" direction="ltr">Del</text></g><g transform="translate(471 3310) rotate(0 25 12.5)"><text x="0" y="18" font-family="Virgil, Segoe UI Emoji" font-size="20px" fill="#495057" text-anchor="start" style="white-space: pre;" direction="ltr">Alert</text></g><g transform="translate(475 3348) rotate(0 16 12.5)"><text x="0" y="18" font-family="Virgil, Segoe UI Emoji" font-size="20px" fill="#495057" text-anchor="start" style="white-space: pre;" direction="ltr">yes</text></g><g transform="translate(569 3308) rotate(0 28 12.5)"><text x="0" y="18" font-family="Virgil, Segoe UI Emoji" font-size="20px" fill="#495057" text-anchor="start" style="white-space: pre;" direction="ltr">start</text></g><g transform="translate(660 3306.5) rotate(0 16.5 12.5)"><text x="0" y="18" font-family="Virgil, Segoe UI Emoji" font-size="20px" fill="#495057" text-anchor="start" style="white-space: pre;" direction="ltr">end</text></g><g transform="translate(736 3304) rotate(0 33 12.5)"><text x="0" y="18" font-family="Virgil, Segoe UI Emoji" font-size="20px" fill="#495057" text-anchor="start" style="white-space: pre;" direction="ltr">repeat</text></g><g transform="translate(750 3344) rotate(0 18.5 12.5)"><text x="0" y="18" font-family="Virgil, Segoe UI Emoji" font-size="20px" fill="#495057" text-anchor="start" style="white-space: pre;" direction="ltr">4dd</text></g><g stroke-linecap="round" transform="translate(296 3472) rotate(0 85 23)"><path d="M11.5 0 M11.5 0 C65.01 1.09, 115.48 1.95, 158.5 0 M11.5 0 C49.87 -0.97, 88.28 -1.51, 158.5 0 M158.5 0 C165.75 -0.8, 168.45 1.99, 170 11.5 M158.5 0 C167.18 -1.4, 169.31 4.15, 170 11.5 M170 11.5 C169.45 16.96, 170.04 23.14, 170 34.5 M170 11.5 C169.74 16.42, 170.38 21.27, 170 34.5 M170 34.5 C171.33 42.54, 166.92 47.48, 158.5 46 M170 34.5 C170.85 42.54, 164.27 47.39, 158.5 46 M158.5 46 C130.32 45.52, 99.16 47.41, 11.5 46 M158.5 46 C128.95 46.66, 97.13 47.71, 11.5 46 M11.5 46 C4.43 47.03, -1.03 41.26, 0 34.5 M11.5 46 C3.92 45.62, -0.26 44.33, 0 34.5 M0 34.5 C1.26 25.83, 1.41 21.61, 0 11.5 M0 34.5 C-0.46 26.82, 1.14 19.67, 0 11.5 M0 11.5 C-0.25 2.86, 4 0.75, 11.5 0 M0 11.5 C-0.64 5.8, 2.06 1.84, 11.5 0" stroke="#495057" stroke-width="1" fill="none"></path></g><g transform="translate(357 3482.5) rotate(0 24 12.5)"><text x="24" y="18" font-family="Virgil, Segoe UI Emoji" font-size="20px" fill="#495057" text-anchor="middle" style="white-space: pre;" direction="ltr">Save</text></g><g stroke-linecap="round" transform="translate(499 3471) rotate(0 85 23)"><path d="M11.5 0 M11.5 0 C43.58 0.85, 76.43 -0.86, 158.5 0 M11.5 0 C66.93 -0.62, 122.02 -0.63, 158.5 0 M158.5 0 C164.62 -1.84, 170.88 2.61, 170 11.5 M158.5 0 C165.47 0.31, 169.03 1.63, 170 11.5 M170 11.5 C170.22 16.07, 168.54 22.1, 170 34.5 M170 11.5 C170.18 18.33, 170.58 26.86, 170 34.5 M170 34.5 C170.76 43.64, 166.91 46.33, 158.5 46 M170 34.5 C168.11 43.55, 163.9 48.19, 158.5 46 M158.5 46 C115.63 47.28, 71.03 47.65, 11.5 46 M158.5 46 C103.64 46.16, 50.09 45.98, 11.5 46 M11.5 46 C2.8 45.09, 0.07 41.83, 0 34.5 M11.5 46 C3.57 48.16, 0.06 41.71, 0 34.5 M0 34.5 C1.22 27.21, 0.55 16.27, 0 11.5 M0 34.5 C1.1 26.31, 0.02 16.54, 0 11.5 M0 11.5 C0.17 4.59, 3.27 1.71, 11.5 0 M0 11.5 C-1.78 5.68, 2.65 0.16, 11.5 0" stroke="#495057" stroke-width="1" fill="none"></path></g><g transform="translate(552.5 3481.5) rotate(0 31.5 12.5)"><text x="31.5" y="18" font-family="Virgil, Segoe UI Emoji" font-size="20px" fill="#495057" text-anchor="middle" style="white-space: pre;" direction="ltr">Cancel</text></g><g stroke-linecap="round" transform="translate(11.5 726.9728670790789) rotate(0 522.5 345)"><path d="M32 0 M32 0 C232.94 1.26, 433.49 -0.03, 1013 0 M32 0 C404.19 3.41, 776.02 3.71, 1013 0 M1013 0 C1033.8 -0.95, 1045.77 9.99, 1045 32 M1013 0 C1035.43 1.34, 1043.66 9.61, 1045 32 M1045 32 C1046.62 238.34, 1046.29 445.11, 1045 658 M1045 32 C1042.42 273.35, 1042.22 514.69, 1045 658 M1045 658 C1044.78 678.5, 1036.14 688.01, 1013 690 M1045 658 C1045.15 679.24, 1034.77 688.01, 1013 690 M1013 690 C803.27 690.56, 594.69 689.79, 32 690 M1013 690 C783.07 688.66, 553.46 689.43, 32 690 M32 690 C8.91 689.5, -0.15 679.19, 0 658 M32 690 C11.95 690.86, 0.8 679.48, 0 658 M0 658 C0.83 528.93, -0.21 400.71, 0 32 M0 658 C-0.81 449.66, -0.37 241.53, 0 32 M0 32 C-0.29 8.96, 11.4 -1.23, 32 0 M0 32 C-0.63 11.17, 12.75 -0.47, 32 0" stroke="#495057" stroke-width="1" fill="none"></path></g><g stroke-linecap="round"><g transform="translate(11 807.25) rotate(0 522.2516025645892 1.1780684581678997)"><path d="M0.88 0.93 C174.91 1.04, 870.73 0.77, 1044.61 0.98 M-0.11 0.38 C173.68 0.57, 869.01 1.44, 1043.46 1.98" stroke="#000000" stroke-width="1" fill="none"></path></g></g><mask></mask><g transform="translate(556 758.25) rotate(0 52.5 12.5)"><text x="0" y="18" font-family="Virgil, Segoe UI Emoji" font-size="20px" fill="#000000" text-anchor="start" style="white-space: pre;" direction="ltr">Dashboard</text></g><g transform="translate(688.5 758.75) rotate(0 66.5 12.5)"><text x="0" y="18" font-family="Virgil, Segoe UI Emoji" font-size="20px" fill="#000000" text-anchor="start" style="white-space: pre;" direction="ltr">Employee List</text></g><g transform="translate(856.5 759.75) rotate(0 34 12.5)"><text x="0" y="18" font-family="Virgil, Segoe UI Emoji" font-size="20px" fill="#000000" text-anchor="start" style="white-space: pre;" direction="ltr">Logout</text></g><g stroke-linecap="round" transform="translate(185 903.25) rotate(0 93 87)"><path d="M32 0 M32 0 C63.37 1.44, 90 -0.43, 154 0 M32 0 C65.68 -1.03, 101.74 -0.67, 154 0 M154 0 C174.33 -1.65, 184.05 9.82, 186 32 M154 0 C174.84 1.1, 185.94 11.24, 186 32 M186 32 C186.24 57.23, 188.24 79.62, 186 142 M186 32 C185.42 57.31, 186.78 81.55, 186 142 M186 142 C185.95 162.01, 174.31 173.44, 154 174 M186 142 C184.79 164.04, 176.28 172.51, 154 174 M154 174 C109.5 177.09, 63.8 176.48, 32 174 M154 174 C123.67 174.43, 95.47 174.53, 32 174 M32 174 C12.17 172.18, -1.88 161.77, 0 142 M32 174 C12.21 173.33, -1.78 162.97, 0 142 M0 142 C-1.04 119.36, 0.32 96.29, 0 32 M0 142 C-0.84 102.07, -0.53 61.69, 0 32 M0 32 C1.81 12.62, 11.68 -0.82, 32 0 M0 32 C-1.24 9.69, 9.43 0.81, 32 0" stroke="#000000" stroke-width="1" fill="none"></path></g><g transform="translate(257 948.25) rotate(0 16.5 22.5)"><text x="0" y="32" font-family="Virgil, Segoe UI Emoji" font-size="36px" fill="#000000" text-anchor="start" style="white-space: pre;" direction="ltr">15</text></g><g transform="translate(205 1011.25) rotate(0 75.5 22.5)"><text x="0" y="32" font-family="Virgil, Segoe UI Emoji" font-size="36px" fill="#000000" text-anchor="start" style="white-space: pre;" direction="ltr">Employee</text></g><g stroke-linecap="round" transform="translate(618 902.25) rotate(0 93 87)"><path d="M32 0 M32 0 C70.32 0.02, 105.96 -0.84, 154 0 M32 0 C74.56 -0.61, 118.83 -0.89, 154 0 M154 0 C174.5 -1.64, 185.73 11.38, 186 32 M154 0 C173.2 -1.44, 188.3 11.07, 186 32 M186 32 C184.81 59.47, 184.85 84.13, 186 142 M186 32 C185.88 67.06, 185.52 103.1, 186 142 M186 142 C187.13 163.42, 177.08 173.52, 154 174 M186 142 C184.57 163.43, 173.12 173.66, 154 174 M154 174 C123.59 173.26, 94.04 174.38, 32 174 M154 174 C118.67 173.94, 82.6 173.58, 32 174 M32 174 C11.82 175.45, 0.46 163.16, 0 142 M32 174 C11.97 172.23, 1.37 162.85, 0 142 M0 142 C-0.57 104.51, 0.69 65.24, 0 32 M0 142 C0.65 98.04, 0.08 54.2, 0 32 M0 32 C-0.61 9.3, 9.81 0.05, 32 0 M0 32 C-1.19 9.85, 9.14 1.27, 32 0" stroke="#000000" stroke-width="1" fill="none"></path></g><g transform="translate(690 947.25) rotate(0 12 22.5)"><text x="0" y="32" font-family="Virgil, Segoe UI Emoji" font-size="36px" fill="#000000" text-anchor="start" style="white-space: pre;" direction="ltr">4</text></g><g transform="translate(658 1000.25) rotate(0 54.5 22.5)"><text x="0" y="32" font-family="Virgil, Segoe UI Emoji" font-size="36px" fill="#000000" text-anchor="start" style="white-space: pre;" direction="ltr">Alerts</text></g><g stroke-linecap="round"><g transform="translate(245 1216.8258339166641) rotate(0 0.965124878725458 -77.366981048882)"><path d="M-0.71 -0.51 C-0.46 -26.27, -0.06 -128.47, 0.3 -154.23 M1.12 -1.82 C1.86 -27.43, 2.68 -127.39, 2.64 -152.81" stroke="#000000" stroke-width="1" fill="none"></path></g><g transform="translate(245 1216.8258339166641) rotate(0 0.965124878725458 -77.366981048882)"><path d="M11.93 -125.74 C10.28 -129.59, 6.85 -136.49, 2.27 -154.05 M11.83 -125.52 C8.84 -134.68, 6.87 -143.21, 3.38 -153.19" stroke="#000000" stroke-width="1" fill="none"></path></g><g transform="translate(245 1216.8258339166641) rotate(0 0.965124878725458 -77.366981048882)"><path d="M-8.59 -125.83 C-6.13 -129.54, -5.45 -136.42, 2.27 -154.05 M-8.69 -125.61 C-4.68 -134.61, 0.34 -143.11, 3.38 -153.19" stroke="#000000" stroke-width="1" fill="none"></path></g></g><mask></mask><g transform="translate(164 1230.8258339166641) rotate(0 426 22.5)"><text x="0" y="32" font-family="Virgil, Segoe UI Emoji" font-size="36px" fill="#000000" text-anchor="start" style="white-space: pre;" direction="ltr">If i click on it, user will be redirect on emp. list</text></g><g transform="translate(235.0091632604599 3249.7223991155624) rotate(0 25.5 22.5)"><text x="0" y="32" font-family="Virgil, Segoe UI Emoji" font-size="36px" fill="#000000" text-anchor="start" style="white-space: pre;" direction="ltr">(+)</text></g><g stroke-linecap="round" transform="translate(782.3436598777771 2827.801646590233) rotate(0 95.5 22.5)"><path d="M11.25 0 M11.25 0 C70 2.62, 125.54 2.53, 179.75 0 M11.25 0 C72.87 1.96, 134.13 0.69, 179.75 0 M179.75 0 C188.19 -1.33, 192.03 2.7, 191 11.25 M179.75 0 C185.78 -0.72, 190.88 3.93, 191 11.25 M191 11.25 C191.95 17, 192.11 21.06, 191 33.75 M191 11.25 C192.01 17.4, 190.93 23.77, 191 33.75 M191 33.75 C191.32 42.34, 186.69 44.03, 179.75 45 M191 33.75 C192.89 39.13, 186.91 43.77, 179.75 45 M179.75 45 C116.21 42.8, 50.77 44.5, 11.25 45 M179.75 45 C125.85 44.22, 72.1 44.97, 11.25 45 M11.25 45 C3.78 46.45, -0.15 40.3, 0 33.75 M11.25 45 C1.69 44.2, 0 43.14, 0 33.75 M0 33.75 C-1.72 27.12, 1.57 19.05, 0 11.25 M0 33.75 C-0.92 28.49, -0.63 22.95, 0 11.25 M0 11.25 C0.57 2.05, 4.83 1.38, 11.25 0 M0 11.25 C-0.81 2.85, 5.46 1.16, 11.25 0" stroke="#000000" stroke-width="1" fill="none"></path></g><g transform="translate(839.3436598777771 2837.801646590233) rotate(0 33 12.5)"><text x="0" y="18" font-family="Virgil, Segoe UI Emoji" font-size="20px" fill="#000000" text-anchor="start" style="white-space: pre;" direction="ltr">Delete</text></g><g stroke-linecap="round"><g transform="translate(979.3436598777771 2848.801646590233) rotate(0 157.33661515361166 18.746522810324052)"><path d="M0.8 -0.68 C53.41 5.46, 262.41 30.68, 314.91 37.11 M-0.24 1.57 C52.27 7.83, 261.3 31.92, 313.91 38.18" stroke="#000000" stroke-width="1" fill="none"></path></g><g transform="translate(979.3436598777771 2848.801646590233) rotate(0 157.33661515361166 18.746522810324052)"><path d="M283.59 44.94 C290.16 44.57, 298.34 41.25, 315.43 37.08 M284.08 45.04 C295.97 42.8, 307.72 39.66, 313.59 37.7" stroke="#000000" stroke-width="1" fill="none"></path></g><g transform="translate(979.3436598777771 2848.801646590233) rotate(0 157.33661515361166 18.746522810324052)"><path d="M285.97 24.56 C292.01 29.04, 299.63 30.57, 315.43 37.08 M286.46 24.66 C297.46 30.48, 308.27 35.42, 313.59 37.7" stroke="#000000" stroke-width="1" fill="none"></path></g></g><mask></mask><g stroke-linecap="round" transform="translate(1350.343659877777 2826.801646590233) rotate(0 367 281)"><path d="M32 0 M32 0 C267.82 2.75, 505.13 1.63, 702 0 M32 0 C187.88 0.19, 343.97 0.04, 702 0 M702 0 C722.54 1.94, 734.58 11.11, 734 32 M702 0 C725.5 -1.12, 735.83 11.86, 734 32 M734 32 C732.93 140.85, 733.11 248.15, 734 530 M734 32 C733.8 210.12, 733.8 388.93, 734 530 M734 530 C732.12 549.68, 723.44 562.01, 702 562 M734 530 C735.97 553.45, 725.41 564.22, 702 562 M702 562 C530.23 561.35, 357.08 561.9, 32 562 M702 562 C559.43 560.64, 416.67 560.86, 32 562 M32 562 C10.15 563.25, -1.51 550.43, 0 530 M32 562 C9.84 563.27, -1.92 550.04, 0 530 M0 530 C-1.15 385.68, -1.32 240.75, 0 32 M0 530 C1.89 395.46, 1.24 260.67, 0 32 M0 32 C1.39 9.55, 12.32 0.23, 32 0 M0 32 C-2.23 10.56, 12.93 2.02, 32 0" stroke="#000000" stroke-width="1" fill="none"></path></g><g stroke-linecap="round" transform="translate(1402.343659877777 2907.801646590233) rotate(0 320 168.5)"><path d="M32 0 M32 0 C167.04 0.95, 300.82 0.29, 608 0 M32 0 C245.04 -0.99, 457.92 -1.54, 608 0 M608 0 C631.19 0.94, 638.98 11.72, 640 32 M608 0 C630.54 0.14, 638.24 12.05, 640 32 M640 32 C641.02 122.27, 642.59 209.25, 640 305 M640 32 C641.13 132.53, 639.89 232.82, 640 305 M640 305 C639.37 328.04, 630.67 335.89, 608 337 M640 305 C637.98 327.12, 628.33 335.43, 608 337 M608 337 C445.01 338.25, 281.68 338.55, 32 337 M608 337 C482.39 336.95, 356.95 337.38, 32 337 M32 337 C10.5 338.04, 0.14 328.16, 0 305 M32 337 C11.37 337.06, -2.14 324.61, 0 305 M0 305 C0.26 223.92, 1.37 141.22, 0 32 M0 305 C0.71 244.72, 1.25 183.95, 0 32 M0 32 C-1.32 9.33, 9.59 -0.34, 32 0 M0 32 C1.71 11.04, 11.14 1.65, 32 0" stroke="#000000" stroke-width="1" fill="none"></path></g><g transform="translate(1384.343659877777 2848.301646590233) rotate(0 59 12.5)"><text x="0" y="18" font-family="Virgil, Segoe UI Emoji" font-size="20px" fill="#495057" text-anchor="start" style="white-space: pre;" direction="ltr">Gianni Smith</text></g><g transform="translate(1550.5390503427152 2922.41274034317) rotate(0 161 12.5)"><text x="0" y="18" font-family="Virgil, Segoe UI Emoji" font-size="20px" fill="#000000" text-anchor="start" style="white-space: pre;" direction="ltr">YOU'RE DELETING Gianni SMith</text></g><g transform="translate(1437.343659877777 2981.801646590233) rotate(0 97 37.5)"><text x="0" y="18" font-family="Virgil, Segoe UI Emoji" font-size="20px" fill="#000000" text-anchor="start" style="white-space: pre;" direction="ltr">Resignation Date: </text><text x="0" y="43" font-family="Virgil, Segoe UI Emoji" font-size="20px" fill="#000000" text-anchor="start" style="white-space: pre;" direction="ltr"></text><text x="0" y="68" font-family="Virgil, Segoe UI Emoji" font-size="20px" fill="#000000" text-anchor="start" style="white-space: pre;" direction="ltr">Resignation Period: </text></g><g stroke-linecap="round" transform="translate(1635.343659877777 2974.801646590233) rotate(0 130 20.5)"><path d="M10.25 0 M10.25 0 C59.79 0.07, 108.19 0.14, 249.75 0 M10.25 0 C65.97 -0.03, 122.14 0.3, 249.75 0 M249.75 0 C257.33 -0.21, 261.98 2.99, 260 10.25 M249.75 0 C255.56 -0.31, 259.86 5.28, 260 10.25 M260 10.25 C261.43 17.91, 261.51 24.51, 260 30.75 M260 10.25 C259.68 18.18, 259.34 26.57, 260 30.75 M260 30.75 C261.81 39.01, 256.58 40.16, 249.75 41 M260 30.75 C260.72 39.02, 255.92 40.95, 249.75 41 M249.75 41 C162.11 43.2, 74.33 43.65, 10.25 41 M249.75 41 C163.86 40.81, 78.08 41.25, 10.25 41 M10.25 41 C2.01 42.02, -1.44 39.46, 0 30.75 M10.25 41 C4.78 42.2, 1.07 36.32, 0 30.75 M0 30.75 C-0.65 21.08, -0.66 14.87, 0 10.25 M0 30.75 C0.92 24.39, 0.58 19.55, 0 10.25 M0 10.25 C1.58 5.01, 5.14 1.07, 10.25 0 M0 10.25 C0.75 4, 1.49 1.94, 10.25 0" stroke="#000000" stroke-width="1" fill="none"></path></g><g stroke-linecap="round" transform="translate(1634.343659877777 3023.301646590233) rotate(0 130 20.5)"><path d="M10.25 0 M10.25 0 C70.49 0.38, 126.25 0.37, 249.75 0 M10.25 0 C82.5 0.43, 153.68 0.15, 249.75 0 M249.75 0 C256.55 1.58, 261.59 5.14, 260 10.25 M249.75 0 C257.81 0.75, 260.59 1.49, 260 10.25 M260 10.25 C259.17 16.21, 261.86 26.34, 260 30.75 M260 10.25 C260.31 16.19, 259.59 21.86, 260 30.75 M260 30.75 C258.85 35.71, 256.5 40.15, 249.75 41 M260 30.75 C258.94 39.02, 258.1 41.71, 249.75 41 M249.75 41 C188.08 39.58, 127.49 40.71, 10.25 41 M249.75 41 C180.41 40.48, 109.98 41.53, 10.25 41 M10.25 41 C5.28 41.69, -1.7 35.93, 0 30.75 M10.25 41 C2.29 40.73, 1.33 37.77, 0 30.75 M0 30.75 C-1.56 21.77, 0.94 17.49, 0 10.25 M0 30.75 C0.91 22.99, -0.16 15.87, 0 10.25 M0 10.25 C-1.74 2.48, 3.73 0.9, 10.25 0 M0 10.25 C0.63 3.28, 5.14 1.08, 10.25 0" stroke="#000000" stroke-width="1" fill="none"></path></g><g transform="translate(1712.843659877777 3031.301646590233) rotate(0 51.5 12.5)"><text x="51.5" y="18" font-family="Virgil, Segoe UI Emoji" font-size="20px" fill="#000000" text-anchor="middle" style="white-space: pre;" direction="ltr">30 (Days)</text></g><g transform="translate(1701.343659877777 2979.801646590233) rotate(0 52 12.5)"><text x="0" y="18" font-family="Virgil, Segoe UI Emoji" font-size="20px" fill="#000000" text-anchor="start" style="white-space: pre;" direction="ltr">12-02-2011</text></g><g stroke-linecap="round" transform="translate(1808.343659877777 3185.801646590233) rotate(0 87 18.5)"><path d="M9.25 0 M9.25 0 C55.57 -1.24, 102.09 -2.55, 164.75 0 M9.25 0 C61.81 -1.4, 116.02 0.58, 164.75 0 M164.75 0 C168.99 -0.58, 172.49 2.16, 174 9.25 M164.75 0 C171.68 -1.67, 172.61 2.6, 174 9.25 M174 9.25 C175.42 13.45, 174.02 19.39, 174 27.75 M174 9.25 C174.24 15.65, 173.23 22.74, 174 27.75 M174 27.75 C175.33 35.52, 172.22 37.87, 164.75 37 M174 27.75 C172.54 32.07, 169.28 37.08, 164.75 37 M164.75 37 C121.95 39.22, 81.93 39.24, 9.25 37 M164.75 37 C114.66 36.78, 66.11 35.52, 9.25 37 M9.25 37 C1.8 38.58, -0.87 35.36, 0 27.75 M9.25 37 C3.81 38.99, 1.92 35.89, 0 27.75 M0 27.75 C-0.37 24.61, -0.46 18.29, 0 9.25 M0 27.75 C-0.03 21.11, -0.82 13.29, 0 9.25 M0 9.25 C1.08 3.72, 4.23 -0.33, 9.25 0 M0 9.25 C0.08 1.64, 3.74 -0.27, 9.25 0" stroke="#000000" stroke-width="1" fill="none"></path></g><g stroke-linecap="round" transform="translate(1458.343659877777 3187.301646590233) rotate(0 87 18.5)"><path d="M9.25 0 M9.25 0 C59.61 0.26, 111.15 1.21, 164.75 0 M9.25 0 C62.38 1.34, 113.65 1.55, 164.75 0 M164.75 0 C170.2 0.24, 174.39 4.67, 174 9.25 M164.75 0 C169.01 -0.96, 175.57 2.65, 174 9.25 M174 9.25 C172.86 15.61, 173.44 18.79, 174 27.75 M174 9.25 C173.62 16.3, 173.25 23.26, 174 27.75 M174 27.75 C174.25 33.46, 172.84 37.48, 164.75 37 M174 27.75 C173.8 34, 170.54 35.07, 164.75 37 M164.75 37 C111.77 36.45, 57.75 38.95, 9.25 37 M164.75 37 C117.2 36.13, 70.41 35.34, 9.25 37 M9.25 37 C4.98 37.6, 0.6 32.36, 0 27.75 M9.25 37 C4.32 35.63, 1.45 34.31, 0 27.75 M0 27.75 C-1.86 22.88, 1.55 13.9, 0 9.25 M0 27.75 C0.81 22.89, -0.36 17.16, 0 9.25 M0 9.25 C1.95 3.53, 4.26 1.33, 9.25 0 M0 9.25 C0.15 2.88, 2.79 -1.79, 9.25 0" stroke="#000000" stroke-width="1" fill="none"></path></g><g transform="translate(1506.343659877777 3193.301646590233) rotate(0 39 12.5)"><text x="39" y="18" font-family="Virgil, Segoe UI Emoji" font-size="20px" fill="#000000" text-anchor="middle" style="white-space: pre;" direction="ltr">CANCEL</text></g><g transform="translate(1860.343659877777 3192.801646590233) rotate(0 46.5 12.5)"><text x="0" y="18" font-family="Virgil, Segoe UI Emoji" font-size="20px" fill="#000000" text-anchor="start" style="white-space: pre;" direction="ltr">CONFIRM</text></g><g transform="translate(1463.343659877777 3087.801646590233) rotate(0 270.5 25)"><text x="0" y="18" font-family="Virgil, Segoe UI Emoji" font-size="20px" fill="#000000" text-anchor="start" style="white-space: pre;" direction="ltr">**If you leave the fields empty automatically set </text><text x="0" y="43" font-family="Virgil, Segoe UI Emoji" font-size="20px" fill="#000000" text-anchor="start" style="white-space: pre;" direction="ltr">ResignationDate as Today and resignationPeriod as 0</text></g><g transform="translate(1065.4863663264618 2839.866052689358) rotate(7.214262039206741 132.99999999999994 10)"><text x="0" y="14" font-family="Virgil, Segoe UI Emoji" font-size="16px" fill="#000000" text-anchor="start" style="white-space: pre;" direction="ltr">when click on delete open a modal</text></g><g stroke-linecap="round"><g transform="translate(1895.4060337026003 3223.89635821706) rotate(0 0.9641291715117859 39.41707440872415)"><path d="M-0.07 0.88 C0.31 13.91, 3.1 65.55, 3.5 78.55 M-1.57 0.29 C-1.43 12.92, 1.62 63.87, 2.68 76.64" stroke="#000000" stroke-width="1" fill="none"></path></g><g transform="translate(1895.4060337026003 3223.89635821706) rotate(0 0.9641291715117859 39.41707440872415)"><path d="M-8.03 49.63 C-3.87 58.67, 1.51 71.63, 1.8 77.72 M-8.53 49.08 C-6.87 56.41, -4.05 62.21, 2.57 77.22" stroke="#000000" stroke-width="1" fill="none"></path></g><g transform="translate(1895.4060337026003 3223.89635821706) rotate(0 0.9641291715117859 39.41707440872415)"><path d="M12.44 48.22 C8.43 57.81, 5.64 71.34, 1.8 77.72 M11.94 47.67 C8.54 55.43, 6.31 61.58, 2.57 77.22" stroke="#000000" stroke-width="1" fill="none"></path></g></g><mask></mask><g transform="translate(1808.5592996029143 3309.9508896403386) rotate(0 127.5 50)"><text x="0" y="18" font-family="Virgil, Segoe UI Emoji" font-size="20px" fill="#000000" text-anchor="start" style="white-space: pre;" direction="ltr">Automatically then go on </text><text x="0" y="43" font-family="Virgil, Segoe UI Emoji" font-size="20px" fill="#000000" text-anchor="start" style="white-space: pre;" direction="ltr">employee list</text><text x="0" y="68" font-family="Virgil, Segoe UI Emoji" font-size="20px" fill="#000000" text-anchor="start" style="white-space: pre;" direction="ltr"></text><text x="0" y="93" font-family="Virgil, Segoe UI Emoji" font-size="20px" fill="#000000" text-anchor="start" style="white-space: pre;" direction="ltr"></text></g></svg>